<svg width="95" height="85" viewBox="0 0 95 85" fill="currentColor" xmlns="http://www.w3.org/2000/svg">
<path d="M20.718 42.0942C20.718 47.7845 16.1282 52.53 10.359 52.53C4.5898 52.53 0.117 47.7842 0.117 42.0942C0.117 36.404 4.7068 31.6585 10.476 31.6585C16.2455 31.6585 20.718 36.4043 20.718 42.0942ZM87.82 34.8613H39.554C35.5501 34.8613 32.3743 38.0646 32.3743 42.0942C32.3743 46.1278 35.554 49.3271 39.554 49.3271H87.82C91.8239 49.3271 94.9997 46.1238 94.9997 42.0942C94.9997 38.0607 91.82 34.8613 87.82 34.8613ZM10.359 0C4.7067 0 0 4.6238 0 10.4357C0 16.2477 4.5898 20.8715 10.359 20.8715C16.1282 20.8715 20.718 16.2477 20.718 10.4357C20.718 4.6238 16.1282 0 10.359 0ZM87.82 3.08126H39.554C35.5501 3.08126 32.3743 6.28451 32.3743 10.3141C32.3743 14.3477 35.554 17.547 39.554 17.547H87.82C91.8239 17.547 94.9997 14.3438 94.9997 10.3141C94.9997 6.28451 91.82 3.08126 87.82 3.08126ZM10.359 63.4391C4.7067 63.4391 0 68.0629 0 73.8748C0 79.6867 4.5898 84.3105 10.359 84.3105C16.1285 84.3066 20.718 79.6827 20.718 73.8748C20.718 68.0626 16.1282 63.4391 10.359 63.4391ZM87.82 66.5203H39.554C35.5501 66.5203 32.3743 69.7236 32.3743 73.7532C32.3743 77.7868 35.554 80.9861 39.554 80.9861H87.82C91.8239 80.9861 94.9997 77.7828 94.9997 73.7532C94.9997 69.7236 91.82 66.5203 87.82 66.5203Z" fill="white"/>
</svg>
