<?xml version="1.0" encoding="utf-8"?>
<!-- Generator: Adobe Illustrator 28.0.0, SVG Export Plug-In . SVG Version: 6.00 Build 0)  -->
<svg version="1.1" id="Layer_1" xmlns="http://www.w3.org/2000/svg" xmlns:xlink="http://www.w3.org/1999/xlink" x="0px" y="0px"
	 viewBox="0 0 110 135" style="enable-background:new 0 0 110 135;" xml:space="preserve">
<style type="text/css">
	.st0{fill-rule:evenodd;clip-rule:evenodd;fill:#FFFFFF;}
</style>
<g>
	<path class="st0" d="M14.8,17.8v68.4h80.5V40.8H74c-1.2,0-2.1-0.9-2.1-2.1l0-20.9L14.8,17.8z M59.3,51.1c1.1,0.4,1.7,1.6,1.3,2.6
		l-7.2,20.9c-0.4,1.1-1.6,1.7-2.6,1.3c-1.1-0.4-1.7-1.6-1.3-2.6l7.2-20.9C57.1,51.3,58.3,50.7,59.3,51.1z M39.9,53.4
		c0.8,0.8,0.9,2.1,0.1,2.9l-6.8,7.2l6.8,7.2c0.8,0.8,0.8,2.2-0.1,2.9c-0.8,0.8-2.2,0.8-2.9-0.1L28.9,65l0,0c-0.8-0.8-0.9-2.1-0.1-3
		l0,0l8.2-8.6C37.8,52.6,39.1,52.6,39.9,53.4L39.9,53.4z M70.2,53.4c0.8-0.8,2.2-0.8,2.9,0.1l8.2,8.6l0,0c0.8,0.8,0.8,2.2-0.1,3l0,0
		l-8.1,8.5c-0.8,0.8-2.1,0.9-2.9,0.1c-0.8-0.8-0.9-2.1-0.1-2.9l6.8-7.2l-6.8-7.2C69.3,55.5,69.4,54.2,70.2,53.4L70.2,53.4z"/>
	<path class="st0" d="M76.1,20.7v15.9h16.2L76.1,20.7z"/>
	<path class="st0" d="M82.5,107.9c-0.7,2-2,3.8-3.8,5c-1.8,1.3-3.9,2-6.3,2c-2.9,0-5.6-1.2-7.5-3.1c-1.9-1.9-3.1-4.6-3.1-7.5
		c0-2.9,1.2-5.6,3.1-7.5c1.9-1.9,4.6-3.1,7.5-3.1c1.8,0,3.4,0.4,4.9,1.2c1.5,0.8,2.8,1.9,3.8,3.3c0.7,0.9,0.4,2.2-0.5,2.9
		s-2.2,0.4-2.9-0.5c-0.6-0.9-1.4-1.6-2.3-2c-0.9-0.5-1.9-0.7-3-0.7c-1.8,0-3.4,0.7-4.6,1.9c-1.2,1.2-1.9,2.8-1.9,4.6
		c0,1.8,0.7,3.4,1.9,4.6c1.2,1.2,2.8,1.9,4.6,1.9c1.4,0,2.7-0.5,3.8-1.2c0.2-0.2,0.4-0.3,0.6-0.5h-3.3c-1.2,0-2.1-0.9-2.1-2.1
		s0.9-2.1,2.1-2.1h7c1.2,0,2.1,0.9,2.1,2.1C82.7,107.3,82.7,107.6,82.5,107.9L82.5,107.9z M59.7,104.4c0,2.9-1,5.5-2.8,7.4
		c-1.8,2-4.2,3.2-6.9,3.2s-5.2-1.2-6.9-3.2c-1.7-1.9-2.8-4.6-2.8-7.4s1-5.5,2.8-7.4c1.8-2,4.2-3.2,6.9-3.2s5.2,1.2,6.9,3.2
		C58.6,98.9,59.7,101.5,59.7,104.4z M31.5,95.8v15.1h6.7c1.2,0,2.1,0.9,2.1,2.1s-0.9,2.1-2.1,2.1h-8.8c-1.2,0-2.1-0.9-2.1-2.1V95.8
		c0-1.2,0.9-2.1,2.1-2.1C30.6,93.7,31.5,94.6,31.5,95.8L31.5,95.8z M6.3,90.5v27.7c0,0,0,0.1,0.1,0.1c0,0,0.1,0.1,0.1,0.1h97.2
		c0,0,0.1,0,0.1-0.1c0,0,0.1-0.1,0.1-0.1V90.5c0,0,0-0.1-0.1-0.1c0,0-0.1-0.1-0.1-0.1H6.4c0,0-0.1,0-0.1,0.1
		C6.3,90.5,6.3,90.5,6.3,90.5z"/>
	<path class="st0" d="M14.8,122.6h80.5v8.4H14.8L14.8,122.6z"/>
	<path class="st0" d="M44.5,104.4c0,1.8,0.6,3.5,1.7,4.7c1,1.1,2.3,1.8,3.8,1.8c1.5,0,2.8-0.7,3.8-1.8c1-1.2,1.7-2.8,1.7-4.7
		c0-1.8-0.6-3.5-1.7-4.7c-1-1.1-2.3-1.8-3.8-1.8c-1.5,0-2.8,0.7-3.8,1.8C45.2,100.9,44.5,102.6,44.5,104.4z"/>
</g>
</svg>
