<?xml version="1.0" encoding="utf-8"?>
<!-- Generator: Adobe Illustrator 28.0.0, SVG Export Plug-In . SVG Version: 6.00 Build 0)  -->
<svg version="1.1" id="Layer_1" xmlns="http://www.w3.org/2000/svg" xmlns:xlink="http://www.w3.org/1999/xlink" x="0px" y="0px"
	 viewBox="0 0 100 83.9" style="enable-background:new 0 0 100 83.9;" xml:space="preserve">
<style type="text/css">
	.st0{fill-rule:evenodd;clip-rule:evenodd;fill:#FFFFFF;}
</style>
<path class="st0" d="M57.1,8.2c-3.9-3.9-10.3-3.9-14.2,0s-3.9,10.3,0,14.2c3.9,3.9,10.3,3.9,14.2,0C61,18.4,61,12.1,57.1,8.2z
	 M34.8,35.2c-3.4,2.8-5.6,6.8-6.1,11.1h42.7c-0.5-4.4-2.7-8.4-6.1-11.1C56.8,28.1,43.2,28.1,34.8,35.2z M82.6,14
	c3.3,3.3,3.3,8.8,0,12.1c-3.3,3.3-8.8,3.3-12.1,0c-3.3-3.3-3.3-8.8,0-12.1c0,0,0,0,0,0C73.8,10.7,79.3,10.7,82.6,14z M74.3,46.3
	c-0.4-4.7-2.6-9.1-6.1-12.4c7.1-3,15.8-1.9,21.5,3c2.9,2.3,4.8,5.7,5.3,9.4L74.3,46.3z M29.5,14c3.3,3.3,3.3,8.8,0,12.1
	s-8.8,3.3-12.1,0s-3.3-8.8,0-12.1c0,0,0,0,0,0C20.7,10.7,26.2,10.7,29.5,14z M31.8,33.9c-3.5,3.2-5.6,7.6-6.1,12.4H5
	c0.5-3.7,2.4-7.1,5.3-9.4C16,32.1,24.7,30.9,31.8,33.9L31.8,33.9z M27.1,49.2h-7.3v3.3h5.6c0.7,0,1.2,0.5,1.4,1.1
	c0.3,1.1,0.6,2.2,1.1,3.3c0.4,1,0.9,2.1,1.5,3c0.4,0.6,0.3,1.4-0.2,1.9l-4,4l6.7,6.7l4-4c0.5-0.5,1.2-0.6,1.8-0.2
	c2,1.2,4.1,2.1,6.4,2.6c0.7,0.1,1.2,0.7,1.2,1.4v5.6h9.4v-5.6c0-0.7,0.5-1.2,1.1-1.4c2.2-0.6,4.4-1.4,6.3-2.6
	c0.6-0.4,1.4-0.3,1.9,0.2l4,4l6.7-6.7l-4-4c-0.5-0.5-0.6-1.2-0.2-1.8c1.2-2,2.1-4.1,2.6-6.4c0.1-0.7,0.7-1.2,1.4-1.2h5.6v-3.3H65.2
	c-0.8,8.4-8.3,14.5-16.6,13.7c-7.3-0.7-13-6.4-13.7-13.7H27.1z"/>
</svg>
