<?xml version="1.0" encoding="utf-8"?>
<!-- Generator: Adobe Illustrator 28.0.0, SVG Export Plug-In . SVG Version: 6.00 Build 0)  -->
<svg version="1.1" id="Layer_1" xmlns="http://www.w3.org/2000/svg" xmlns:xlink="http://www.w3.org/1999/xlink" x="0px" y="0px"
	 viewBox="0 0 85 85" style="enable-background:new 0 0 85 85;" xml:space="preserve">
<style type="text/css">
	.st0{fill-rule:evenodd;clip-rule:evenodd;fill:#FFFFFF;}
</style>
<path class="st0" d="M49.2,10.6c-3.7-3.7-9.7-3.7-13.4,0s-3.7,9.7,0,13.4s9.7,3.7,13.4,0C52.9,20.2,52.9,14.3,49.2,10.6z M28.1,36.1
	c-3.2,2.6-5.3,6.4-5.8,10.5h40.3c-0.5-4.2-2.5-7.9-5.8-10.5C48.9,29.4,36.1,29.4,28.1,36.1z M73.3,16.1c3.1,3.1,3.1,8.3,0,11.4
	s-8.3,3.1-11.4,0c-3.1-3.1-3.1-8.3,0-11.4l0,0C65,13,70.2,13,73.3,16.1z M65.4,46.6c-0.4-4.4-2.5-8.6-5.8-11.7
	c6.7-2.8,14.9-1.8,20.3,2.8c2.7,2.2,4.5,5.4,5,8.9L65.4,46.6z M23.1,16.1c3.1,3.1,3.1,8.3,0,11.4s-8.3,3.1-11.4,0s-3.1-8.3,0-11.4
	l0,0C14.8,13,20,13,23.1,16.1z M25.3,34.9c-3.3,3-5.3,7.2-5.8,11.7H0c0.5-3.5,2.3-6.7,5-8.9C10.4,33.2,18.6,32,25.3,34.9L25.3,34.9z
	 M20.9,49.3H14v3.1h5.3c0.7,0,1.1,0.5,1.3,1c0.3,1,0.6,2.1,1,3.1c0.4,0.9,0.9,2,1.4,2.8c0.4,0.6,0.3,1.3-0.2,1.8L19.1,65l6.3,6.3
	l3.8-3.8c0.5-0.5,1.1-0.6,1.7-0.2c1.9,1.1,3.9,2,6,2.5c0.7,0.1,1.1,0.7,1.1,1.3v5.3h8.9v-5.3c0-0.7,0.5-1.1,1-1.3
	c2.1-0.6,4.2-1.3,6-2.5c0.6-0.4,1.3-0.3,1.8,0.2l3.8,3.8l6.3-6.3L62,61.2c-0.5-0.5-0.6-1.1-0.2-1.7c1.1-1.9,2-3.9,2.5-6
	c0.1-0.7,0.7-1.1,1.3-1.1h5.3v-3.1H56.9c-0.8,7.9-7.8,13.7-15.7,12.9c-6.9-0.7-12.3-6-12.9-12.9L20.9,49.3L20.9,49.3z"/>
</svg>
