<?xml version="1.0" encoding="utf-8"?>
<!-- Generator: Adobe Illustrator 28.0.0, SVG Export Plug-In . SVG Version: 6.00 Build 0)  -->
<svg version="1.1" id="Layer_1" xmlns="http://www.w3.org/2000/svg" xmlns:xlink="http://www.w3.org/1999/xlink" x="0px" y="0px"
	 viewBox="0 0 85 85" style="enable-background:new 0 0 85 85;" xml:space="preserve">
<style type="text/css">
	.st0{fill-rule:evenodd;clip-rule:evenodd;fill:#FFFFFF;}
</style>
<g>
	<path class="st0" d="M42.5,0.7c23.1,0,41.8,18.7,41.8,41.8c0,11.5-4.7,22-12.3,29.6c-16.3,16.3-42.8,16.4-59.1,0
		c-16.3-16.3-16.3-42.8,0-59.1C20.5,5.4,31,0.7,42.5,0.7z M42.5,14.5c-8.8,0-15.9,7.1-15.9,15.9c0,8.8,7.1,15.9,15.9,15.9
		c8.8,0,15.9-7.1,15.9-15.9C58.4,21.6,51.3,14.5,42.5,14.5z M22,70.5v-1.3c0-11.3,9.2-20.5,20.5-20.5c11.3,0,20.5,9.2,20.5,20.5v1.3
		C80.1,57.9,82.1,33,67,18C53.5,4.5,31.5,4.5,18,18C2.9,33,4.9,57.9,22,70.5z"/>
</g>
</svg>
