<svg width="83" height="85" viewBox="0 0 83 85"  xmlns="http://www.w3.org/2000/svg">
<path d="M31.9892 37.7778C28.3738 37.7778 24.8397 36.67 21.8336 34.5945C18.8275 32.5189 16.4846 29.5689 15.1011 26.1174C13.7175 22.6659 13.3555 18.868 14.0608 15.2039C14.7662 11.5398 16.5071 8.1741 19.0636 5.53244C21.62 2.89078 24.8771 1.09179 28.423 0.362953C31.9689 -0.365879 35.6443 0.0081842 38.9845 1.43784C42.3246 2.8675 45.1795 5.28853 47.1881 8.3948C49.1967 11.5011 50.2688 15.153 50.2688 18.8889C50.2688 23.8986 48.3429 28.703 44.9148 32.2454C41.4867 35.7877 36.8372 37.7778 31.9892 37.7778ZM31.9892 9.44446C30.1815 9.44446 28.4144 9.99837 26.9114 11.0361C25.4084 12.0739 24.2369 13.5489 23.5451 15.2747C22.8533 17.0004 22.6724 18.8994 23.025 20.7314C23.3777 22.5635 24.2482 24.2463 25.5264 25.5671C26.8046 26.888 28.4332 27.7875 30.2061 28.1519C31.979 28.5163 33.8168 28.3293 35.4868 27.6144C37.1569 26.8996 38.5844 25.6891 39.5886 24.136C40.5929 22.5828 41.129 20.7568 41.129 18.8889C41.129 16.3841 40.166 13.9819 38.452 12.2107C36.7379 10.4395 34.4132 9.44446 31.9892 9.44446Z" fill="white"/>
<path d="M4.5699 84.9996C3.35788 84.9996 2.19551 84.5021 1.33849 83.6165C0.48147 82.7309 0 81.5298 0 80.2774V66.1107C0.00725634 59.8509 2.41694 53.8497 6.70047 49.4234C10.984 44.9971 16.7916 42.5071 22.8495 42.4996H41.1291C43.0911 42.4852 45.0456 42.7506 46.9374 43.2882C48.1046 43.6276 49.0935 44.4322 49.6865 45.525C50.2796 46.6178 50.4282 47.9093 50.0998 49.1154C49.7713 50.3215 48.9927 51.3433 47.9351 51.9562C46.8775 52.569 45.6277 52.7226 44.4605 52.3832C43.3753 52.0767 42.254 51.9288 41.1291 51.944H22.8495C19.2134 51.944 15.7263 53.4366 13.1553 56.0933C10.5842 58.7501 9.13979 62.3535 9.13979 66.1107V80.2774C9.13979 81.5298 8.65832 82.7309 7.8013 83.6165C6.94428 84.5021 5.78191 84.9996 4.5699 84.9996Z" fill="white"/>
<path d="M63.9787 84.9998C62.7668 84.9995 61.6046 84.5018 60.7478 83.6162L47.0381 69.4495C46.1814 68.564 45.7001 67.3631 45.7001 66.1109C45.7001 64.8587 46.1814 63.6578 47.0381 62.7723L60.7478 48.6056C61.6097 47.7454 62.764 47.2694 63.9622 47.2802C65.1604 47.291 66.3066 47.7876 67.1539 48.6631C68.0012 49.5387 68.4818 50.7231 68.4923 51.9612C68.5027 53.1994 68.042 54.3922 67.2096 55.2828L56.7308 66.1109L67.2096 76.939C67.8485 77.5994 68.2836 78.4407 68.4598 79.3566C68.6361 80.2725 68.5456 81.2218 68.1998 82.0846C67.854 82.9473 67.2684 83.6847 66.5171 84.2036C65.7657 84.7225 64.8824 84.9996 63.9787 84.9998Z" fill="white"/>
<path d="M77.6882 70.8336H50.2689C49.0569 70.8336 47.8945 70.3361 47.0375 69.4505C46.1804 68.5649 45.699 67.3638 45.699 66.1114C45.699 64.859 46.1804 63.6579 47.0375 62.7723C47.8945 61.8867 49.0569 61.3892 50.2689 61.3892H77.6882C78.9003 61.3892 80.0626 61.8867 80.9197 62.7723C81.7767 63.6579 82.2581 64.859 82.2581 66.1114C82.2581 67.3638 81.7767 68.5649 80.9197 69.4505C80.0626 70.3361 78.9003 70.8336 77.6882 70.8336Z" fill="white"/>
</svg>
