<?xml version="1.0" encoding="utf-8"?>
<!-- Generator: Adobe Illustrator 28.0.0, SVG Export Plug-In . SVG Version: 6.00 Build 0)  -->
<svg version="1.1" id="Layer_1" xmlns="http://www.w3.org/2000/svg" xmlns:xlink="http://www.w3.org/1999/xlink" x="0px" y="0px"
	 viewBox="0 0 85 85" style="enable-background:new 0 0 85 85;" xml:space="preserve">
<style type="text/css">
	.st0{fill-rule:evenodd;clip-rule:evenodd;fill:#FFFFFF;}
</style>
<path class="st0" d="M11.2,0.5h14.2C31.3,0.5,36,5.4,36,11.3v14.3c0,6-4.7,10.7-10.7,10.7H11.2c-5.9,0-10.7-4.8-10.7-10.7V11.3
	C0.5,5.4,5.3,0.5,11.2,0.5z M11.2,48.7h14.2c5.9,0,10.7,4.8,10.7,10.7v14.3c0,5.9-4.7,10.7-10.7,10.7H11.2
	c-5.9,0-10.7-4.8-10.7-10.7V59.4C0.5,53.5,5.3,48.7,11.2,48.7z M73.8,0.5H59.6C53.7,0.5,49,5.4,49,11.3v14.3c0,6,4.7,10.7,10.7,10.7
	h14.2c5.9,0,10.7-4.8,10.7-10.7V11.3C84.5,5.4,79.7,0.5,73.8,0.5z M59.6,48.7h14.2c5.9,0,10.7,4.8,10.7,10.7v14.3
	c0,5.9-4.8,10.7-10.7,10.7H59.6c-5.9,0-10.7-4.8-10.7-10.7V59.4C49,53.5,53.7,48.7,59.6,48.7z"/>
</svg>
