<?xml version="1.0" encoding="utf-8"?>
<!-- Generator: Adobe Illustrator 28.0.0, SVG Export Plug-In . SVG Version: 6.00 Build 0)  -->
<svg version="1.1" id="Layer_1" xmlns="http://www.w3.org/2000/svg" xmlns:xlink="http://www.w3.org/1999/xlink" x="0px" y="0px"
	 viewBox="0 0 85 85" style="enable-background:new 0 0 85 85;" xml:space="preserve">
<style type="text/css">
	.st0{fill:#FFFFFF;}
</style>
<path class="st0" d="M18.7,42.1c0,5.1-4.1,9.3-9.2,9.3s-9.1-4.2-9.1-9.3c0-5.1,4.1-9.3,9.2-9.3C14.8,32.8,18.7,37.1,18.7,42.1z
	 M78.3,35.7H35.4c-3.6,0-6.4,2.8-6.4,6.4c0,3.6,2.8,6.4,6.4,6.4h42.8c3.6,0,6.4-2.8,6.4-6.4C84.7,38.5,81.8,35.7,78.3,35.7z
	 M9.5,4.7c-5,0-9.2,4.1-9.2,9.3c0,5.2,4.1,9.3,9.2,9.3s9.2-4.1,9.2-9.3C18.7,8.8,14.7,4.7,9.5,4.7z M78.3,7.5H35.4
	c-3.6,0-6.4,2.8-6.4,6.4c0,3.6,2.8,6.4,6.4,6.4h42.8c3.6,0,6.4-2.8,6.4-6.4C84.7,10.3,81.8,7.5,78.3,7.5z M9.5,61
	c-5,0-9.2,4.1-9.2,9.3s4.1,9.3,9.2,9.3c5.1,0,9.2-4.1,9.2-9.3C18.7,65.2,14.7,61,9.5,61z M78.3,63.8H35.4c-3.6,0-6.4,2.8-6.4,6.4
	c0,3.6,2.8,6.4,6.4,6.4h42.8c3.6,0,6.4-2.8,6.4-6.4C84.7,66.6,81.8,63.8,78.3,63.8z"/>
</svg>
