<?xml version="1.0" encoding="utf-8"?>
<!-- Generator: Adobe Illustrator 28.0.0, SVG Export Plug-In . SVG Version: 6.00 Build 0)  -->
<svg version="1.1" id="Layer_1" xmlns="http://www.w3.org/2000/svg" xmlns:xlink="http://www.w3.org/1999/xlink" x="0px" y="0px"
	 viewBox="0 0 85 85" style="enable-background:new 0 0 85 85;" xml:space="preserve">
<style type="text/css">
	.st0{fill-rule:evenodd;clip-rule:evenodd;fill:#FFFFFF;}
</style>
<path class="st0" d="M32.8,39.4c-1.8,0-3.2,1.4-3.2,3.1c0,1.7,1.4,3.1,3.2,3.1h24.7V65c0,9.9-8.2,18-18.3,18H19.1
	C9,83,0.8,75,0.8,65V20C0.8,10,9,2,19.1,2h20.1C49.3,2,57.5,10,57.5,20v19.4H32.8z M72.2,28.5l11.8,11.8c0.6,0.6,0.9,1.4,0.9,2.2
	c0,0.8-0.3,1.6-0.9,2.2L72.2,56.5c-0.6,0.6-1.4,0.9-2.2,0.9c-0.8,0-1.6-0.3-2.2-0.9c-1.2-1.2-1.2-3.2,0-4.4l6.5-6.4H57.5v-6.2h16.8
	l-6.5-6.4c-1.2-1.2-1.2-3.2,0-4.4C69,27.3,71,27.3,72.2,28.5z"/>
</svg>
