<?xml version="1.0" encoding="utf-8"?>
<!-- Generator: Adobe Illustrator 28.0.0, SVG Export Plug-In . SVG Version: 6.00 Build 0)  -->
<svg version="1.1" id="Layer_1" xmlns="http://www.w3.org/2000/svg" xmlns:xlink="http://www.w3.org/1999/xlink" x="0px" y="0px"
	 viewBox="0 0 85 85" style="enable-background:new 0 0 85 85;" xml:space="preserve">
<style type="text/css">
	.st0{fill-rule:evenodd;clip-rule:evenodd;fill:#FFFFFF;}
</style>
<g>
	<path class="st0" d="M12.7,0v51.2H73v-34H57.1c-0.9,0-1.6-0.7-1.6-1.6V0L12.7,0z M46.1,24.9c0.8,0.3,1.3,1.2,1,1.9l-5.4,15.6
		c-0.3,0.8-1.2,1.3-1.9,1c-0.8-0.3-1.3-1.2-1-1.9l5.4-15.6C44.4,25.1,45.3,24.6,46.1,24.9z M31.5,26.6c0.6,0.6,0.7,1.6,0.1,2.2
		l-5.1,5.4l5.1,5.4c0.6,0.6,0.6,1.6-0.1,2.2c-0.6,0.6-1.6,0.6-2.2-0.1l-6.1-6.4l0,0c-0.6-0.6-0.7-1.6-0.1-2.2l0,0l6.1-6.4
		C30,26,30.9,26,31.5,26.6L31.5,26.6z M54.2,26.6c0.6-0.6,1.6-0.6,2.2,0.1l6.1,6.4l0,0c0.6,0.6,0.6,1.6-0.1,2.2l0,0l-6.1,6.4
		c-0.6,0.6-1.6,0.7-2.2,0.1c-0.6-0.6-0.7-1.6-0.1-2.2l5.1-5.4l-5.1-5.4C53.5,28.2,53.6,27.2,54.2,26.6L54.2,26.6z"/>
	<path class="st0" d="M58.6,2.2v11.9h12.1L58.6,2.2z"/>
	<path class="st0" d="M63.4,67.4c-0.5,1.5-1.5,2.8-2.8,3.7c-1.3,1-2.9,1.5-4.7,1.5c-2.2,0-4.2-0.9-5.6-2.3c-1.4-1.4-2.3-3.4-2.3-5.6
		c0-2.2,0.9-4.2,2.3-5.6c1.4-1.4,3.4-2.3,5.6-2.3c1.3,0,2.5,0.3,3.7,0.9c1.1,0.6,2.1,1.4,2.8,2.5c0.5,0.7,0.3,1.6-0.4,2.2
		c-0.7,0.5-1.6,0.3-2.2-0.4c-0.4-0.7-1-1.2-1.7-1.5c-0.7-0.4-1.4-0.5-2.2-0.5c-1.3,0-2.5,0.5-3.4,1.4c-0.9,0.9-1.4,2.1-1.4,3.4
		c0,1.3,0.5,2.5,1.4,3.4c0.9,0.9,2.1,1.4,3.4,1.4c1,0,2-0.4,2.8-0.9c0.1-0.1,0.3-0.2,0.4-0.4h-2.5c-0.9,0-1.6-0.7-1.6-1.6
		s0.7-1.6,1.6-1.6h5.2c0.9,0,1.6,0.7,1.6,1.6C63.6,67,63.6,67.2,63.4,67.4L63.4,67.4z M46.4,64.8c0,2.2-0.7,4.1-2.1,5.5
		c-1.3,1.5-3.1,2.4-5.2,2.4s-3.9-0.9-5.2-2.4c-1.3-1.4-2.1-3.4-2.1-5.5c0-2.1,0.7-4.1,2.1-5.5c1.3-1.5,3.1-2.4,5.2-2.4
		s3.9,0.9,5.2,2.4C45.5,60.7,46.4,62.7,46.4,64.8z M25.2,58.4v11.3h5c0.9,0,1.6,0.7,1.6,1.6c0,0.9-0.7,1.6-1.6,1.6h-6.6
		c-0.9,0-1.6-0.7-1.6-1.6V58.4c0-0.9,0.7-1.6,1.6-1.6C24.6,56.8,25.2,57.5,25.2,58.4L25.2,58.4z M6.4,54.4v20.7c0,0,0,0.1,0.1,0.1
		l0.1,0.1h72.8c0,0,0.1,0,0.1-0.1l0.1-0.1V54.4c0,0,0-0.1-0.1-0.1l-0.1-0.1H6.5C6.5,54.3,6.4,54.3,6.4,54.4
		C6.4,54.4,6.4,54.4,6.4,54.4z"/>
	<path class="st0" d="M12.7,78.4H73v6.3H12.7V78.4z"/>
	<path class="st0" d="M35,64.8c0,1.3,0.4,2.6,1.3,3.5c0.7,0.8,1.7,1.3,2.8,1.3s2.1-0.5,2.8-1.3c0.7-0.9,1.3-2.1,1.3-3.5
		c0-1.3-0.4-2.6-1.3-3.5c-0.7-0.8-1.7-1.3-2.8-1.3s-2.1,0.5-2.8,1.3C35.5,62.2,35,63.5,35,64.8z"/>
</g>
</svg>
