<?xml version="1.0" encoding="utf-8"?>
<!-- Generator: Adobe Illustrator 28.0.0, SVG Export Plug-In . SVG Version: 6.00 Build 0)  -->
<svg version="1.1" id="Layer_1" xmlns="http://www.w3.org/2000/svg" xmlns:xlink="http://www.w3.org/1999/xlink" x="0px" y="0px"
	 viewBox="0 0 85 85" style="enable-background:new 0 0 85 85;" xml:space="preserve">
<style type="text/css">
	.st0{fill:#FFFFFF;}
</style>
<g>
	<path class="st0" d="M33.4,37.8c-3.6,0-7.1-1.1-10.2-3.2c-3-2.1-5.3-5-6.7-8.5c-1.4-3.5-1.7-7.2-1-10.9c0.7-3.7,2.4-7,5-9.7
		c2.6-2.6,5.8-4.4,9.4-5.2C33.3-0.4,37,0,40.4,1.4c3.3,1.4,6.2,3.9,8.2,7c2,3.1,3.1,6.8,3.1,10.5c0,5-1.9,9.8-5.4,13.4
		C42.9,35.8,38.2,37.8,33.4,37.8z M33.4,9.4c-1.8,0-3.6,0.6-5.1,1.6c-1.5,1-2.7,2.5-3.4,4.2c-0.7,1.7-0.9,3.6-0.5,5.5
		c0.4,1.8,1.2,3.5,2.5,4.8c1.3,1.3,2.9,2.2,4.7,2.6c1.8,0.4,3.6,0.2,5.3-0.5c1.7-0.7,3.1-1.9,4.1-3.5c1-1.6,1.5-3.4,1.5-5.2
		c0-2.5-1-4.9-2.7-6.7C38.1,10.4,35.8,9.4,33.4,9.4z"/>
	<path class="st0" d="M5.9,85c-1.2,0-2.4-0.5-3.2-1.4s-1.3-2.1-1.3-3.3V66.1c0-6.3,2.4-12.3,6.7-16.7s10.1-6.9,16.1-6.9h18.3
		c2,0,3.9,0.3,5.8,0.8c1.2,0.3,2.2,1.1,2.7,2.2c0.6,1.1,0.7,2.4,0.4,3.6c-0.3,1.2-1.1,2.2-2.2,2.8c-1.1,0.6-2.3,0.8-3.5,0.4
		c-1.1-0.3-2.2-0.5-3.3-0.4H24.2c-3.6,0-7.1,1.5-9.7,4.1c-2.6,2.7-4,6.3-4,10v14.2c0,1.3-0.5,2.5-1.3,3.3C8.3,84.5,7.2,85,5.9,85z"
		/>
	<path class="st0" d="M65.3,85c-1.2,0-2.4-0.5-3.2-1.4L48.4,69.4c-0.9-0.9-1.3-2.1-1.3-3.3s0.5-2.5,1.3-3.3l13.7-14.2
		c0.9-0.9,2-1.3,3.2-1.3c1.2,0,2.3,0.5,3.2,1.4c0.8,0.9,1.3,2.1,1.3,3.3c0,1.2-0.5,2.4-1.3,3.3L58.1,66.1l10.5,10.8
		c0.6,0.7,1.1,1.5,1.3,2.4c0.2,0.9,0.1,1.9-0.3,2.7c-0.3,0.9-0.9,1.6-1.7,2.1C67.1,84.7,66.3,85,65.3,85z"/>
	<path class="st0" d="M79.1,70.8H51.6c-1.2,0-2.4-0.5-3.2-1.4c-0.9-0.9-1.3-2.1-1.3-3.3c0-1.3,0.5-2.5,1.3-3.3
		c0.9-0.9,2-1.4,3.2-1.4h27.4c1.2,0,2.4,0.5,3.2,1.4c0.9,0.9,1.3,2.1,1.3,3.3c0,1.3-0.5,2.5-1.3,3.3C81.4,70.3,80.3,70.8,79.1,70.8z
		"/>
</g>
</svg>
